<svg width="88" height="88" viewBox="0 0 88 88" fill="none" xmlns="http://www.w3.org/2000/svg">
<g id="icons8-chevron_right 7" filter="url(#filter0_d_1_6376)">
<rect x="20" y="10" width="48" height="48" rx="12" fill="#377DFF"/>
<path id="Vector" d="M48.5 22H39.5C35.3585 22 32 25.3585 32 29.5V38.5C32 42.6415 35.3585 46 39.5 46H48.5C52.6415 46 56 42.6415 56 38.5V29.5C56 25.3585 52.6415 22 48.5 22ZM53.75 38.5C53.75 41.395 51.395 43.75 48.5 43.75H39.5C36.605 43.75 34.25 41.395 34.25 38.5V29.5C34.25 26.605 36.605 24.25 39.5 24.25H48.5C51.395 24.25 53.75 26.605 53.75 29.5V38.5Z" fill="white"/>
<path id="Vector_2" d="M44 28C40.6865 28 38 30.6865 38 34C38 37.3135 40.6865 40 44 40C47.3135 40 50 37.3135 50 34C50 30.6865 47.3135 28 44 28ZM44 37.75C41.933 37.75 40.25 36.067 40.25 34C40.25 31.9315 41.933 30.25 44 30.25C46.067 30.25 47.75 31.9315 47.75 34C47.75 36.067 46.067 37.75 44 37.75Z" fill="white"/>
<path id="Vector_3" d="M50.4494 28.3495C50.891 28.3495 51.2489 27.9915 51.2489 27.55C51.2489 27.1084 50.891 26.7505 50.4494 26.7505C50.0079 26.7505 49.6499 27.1084 49.6499 27.55C49.6499 27.9915 50.0079 28.3495 50.4494 28.3495Z" fill="white"/>
</g>
<defs>
<filter id="filter0_d_1_6376" x="0" y="0" width="88" height="88" filterUnits="userSpaceOnUse" color-interpolation-filters="sRGB">
<feFlood flood-opacity="0" result="BackgroundImageFix"/>
<feColorMatrix in="SourceAlpha" type="matrix" values="0 0 0 0 0 0 0 0 0 0 0 0 0 0 0 0 0 0 127 0" result="hardAlpha"/>
<feOffset dy="10"/>
<feGaussianBlur stdDeviation="10"/>
<feColorMatrix type="matrix" values="0 0 0 0 0.4161 0 0 0 0 0.482057 0 0 0 0 0.57 0 0 0 0.05 0"/>
<feBlend mode="normal" in2="BackgroundImageFix" result="effect1_dropShadow_1_6376"/>
<feBlend mode="normal" in="SourceGraphic" in2="effect1_dropShadow_1_6376" result="shape"/>
</filter>
</defs>
</svg>
