<svg width="88" height="88" viewBox="0 0 88 88" fill="none" xmlns="http://www.w3.org/2000/svg">
<g filter="url(#filter0_d_1_6372)">
<rect x="20" y="10" width="48" height="48" rx="12" fill="black"/>
<path d="M56 26.3085C55.1075 26.7 54.1565 26.9595 53.165 27.0855C54.185 26.4765 54.9635 25.5195 55.3295 24.366C54.3785 24.933 53.3285 25.3335 52.2095 25.557C51.3065 24.5955 50.0195 24 48.6155 24C45.8915 24 43.6985 26.211 43.6985 28.9215C43.6985 29.3115 43.7315 29.6865 43.8125 30.0435C39.722 29.844 36.1025 27.8835 33.671 24.897C33.2465 25.6335 32.9975 26.4765 32.9975 27.384C32.9975 29.088 33.875 30.5985 35.183 31.473C34.3925 31.458 33.617 31.2285 32.96 30.867C32.96 30.882 32.96 30.9015 32.96 30.921C32.96 33.312 34.6655 35.298 36.902 35.7555C36.5015 35.865 36.065 35.9175 35.612 35.9175C35.297 35.9175 34.979 35.8995 34.6805 35.8335C35.318 37.782 37.127 39.2145 39.278 39.261C37.604 40.5705 35.4785 41.3595 33.1775 41.3595C32.774 41.3595 32.387 41.3415 32 41.292C34.1795 42.6975 36.7625 43.5 39.548 43.5C48.602 43.5 53.552 36 53.552 29.499C53.552 29.2815 53.5445 29.0715 53.534 28.863C54.5105 28.17 55.331 27.3045 56 26.3085Z" fill="#CDCDCD"/>
</g>
<defs>
<filter id="filter0_d_1_6372" x="0" y="0" width="88" height="88" filterUnits="userSpaceOnUse" color-interpolation-filters="sRGB">
<feFlood flood-opacity="0" result="BackgroundImageFix"/>
<feColorMatrix in="SourceAlpha" type="matrix" values="0 0 0 0 0 0 0 0 0 0 0 0 0 0 0 0 0 0 127 0" result="hardAlpha"/>
<feOffset dy="10"/>
<feGaussianBlur stdDeviation="10"/>
<feColorMatrix type="matrix" values="0 0 0 0 0.4161 0 0 0 0 0.482057 0 0 0 0 0.57 0 0 0 0.05 0"/>
<feBlend mode="normal" in2="BackgroundImageFix" result="effect1_dropShadow_1_6372"/>
<feBlend mode="normal" in="SourceGraphic" in2="effect1_dropShadow_1_6372" result="shape"/>
</filter>
</defs>
</svg>
