<svg width="1440" height="69" viewBox="0 0 1440 69" fill="none" xmlns="http://www.w3.org/2000/svg">
<mask id="mask0_1_5325" style="mask-type:alpha" maskUnits="userSpaceOnUse" x="721" y="0" width="424" height="69">
<rect x="721" width="424" height="69" fill="#C4C4C4"/>
</mask>
<g mask="url(#mask0_1_5325)">
<path fill-rule="evenodd" clip-rule="evenodd" d="M716.582 0H459.723V39.0826C459.723 39.0826 612.024 0 716.582 0ZM1426.55 0.010734C1426.43 0.0513938 1256.96 58.7351 1147.91 59.7551C1064.48 60.5356 997.448 45.3436 930.118 30.0837C865.2 15.3706 800.004 0.594402 719.558 0.0107129C718.57 0.00354842 717.578 0 716.582 0H1426.55L1426.55 0.0107129L1426.55 0.010734ZM1426.55 305.456C1426.55 305.456 1304.17 345.103 1199.95 345.103C1112.7 345.103 1032.03 333.211 951.361 321.32C870.69 309.429 790.02 297.538 702.772 297.538C603.923 297.538 459.723 345.774 459.723 345.774H1426.55L1426.55 305.456Z" fill="#0D1123"/>
</g>
<mask id="mask1_1_5325" style="mask-type:alpha" maskUnits="userSpaceOnUse" x="1145" y="0" width="424" height="69">
<rect width="424" height="69" transform="matrix(-1 0 0 1 1569 0)" fill="#C4C4C4"/>
</mask>
<g mask="url(#mask1_1_5325)">
<path fill-rule="evenodd" clip-rule="evenodd" d="M1573.42 0H1830.28V39.0826C1830.28 39.0826 1677.98 0 1573.42 0ZM863.452 0.010734C863.569 0.0513938 1033.04 58.7351 1142.09 59.7551C1225.52 60.5356 1292.55 45.3436 1359.88 30.0837C1424.8 15.3706 1490 0.594402 1570.44 0.0107129C1571.43 0.00354842 1572.42 0 1573.42 0H863.452L863.452 0.0107129L863.452 0.010734ZM863.452 305.456C863.452 305.456 985.827 345.103 1090.05 345.103C1177.3 345.103 1257.97 333.211 1338.64 321.32C1419.31 309.429 1499.98 297.538 1587.23 297.538C1686.08 297.538 1830.28 345.774 1830.28 345.774H863.452L863.452 305.456Z" fill="#0D1123"/>
</g>
<mask id="mask2_1_5325" style="mask-type:alpha" maskUnits="userSpaceOnUse" x="-127" y="0" width="424" height="69">
<rect x="-127" width="424" height="69" fill="#C4C4C4"/>
</mask>
<g mask="url(#mask2_1_5325)">
<path fill-rule="evenodd" clip-rule="evenodd" d="M-131.418 0H-388.277V39.0826C-388.277 39.0826 -235.976 0 -131.418 0ZM578.548 0.010734C578.431 0.0513938 408.964 58.7351 299.915 59.7551C216.479 60.5356 149.448 45.3436 82.1179 30.0837C17.2002 15.3706 -47.9958 0.594402 -128.442 0.0107129C-129.43 0.00354842 -130.422 0 -131.418 0H578.548L578.548 0.0107129L578.548 0.010734ZM578.548 305.456C578.548 305.456 456.173 345.103 351.949 345.103C264.701 345.103 184.031 333.211 103.36 321.32C22.69 309.429 -57.9805 297.538 -145.228 297.538C-244.077 297.538 -388.277 345.774 -388.277 345.774H578.548L578.548 305.456Z" fill="#0D1123"/>
</g>
<mask id="mask3_1_5325" style="mask-type:alpha" maskUnits="userSpaceOnUse" x="297" y="0" width="424" height="69">
<rect width="424" height="69" transform="matrix(-1 0 0 1 721 0)" fill="#C4C4C4"/>
</mask>
<g mask="url(#mask3_1_5325)">
<path fill-rule="evenodd" clip-rule="evenodd" d="M725.418 0H982.277V39.0826C982.277 39.0826 829.976 0 725.418 0ZM15.4519 0.010734C15.5693 0.0513938 185.036 58.7351 294.085 59.7551C377.521 60.5356 444.552 45.3436 511.882 30.0837C576.8 15.3706 641.996 0.594402 722.442 0.0107129C723.43 0.00354842 724.422 0 725.418 0H15.4519L15.4518 0.0107129L15.4519 0.010734ZM15.4518 305.456C15.4518 305.456 137.827 345.103 242.051 345.103C329.299 345.103 409.969 333.211 490.639 321.32C571.31 309.429 651.98 297.538 739.228 297.538C838.077 297.538 982.277 345.774 982.277 345.774H15.4519L15.4518 305.456Z" fill="#0D1123"/>
</g>
</svg>
